<svg width="3331" height="670" viewBox="0 0 3331 670" fill="none" xmlns="http://www.w3.org/2000/svg">
<path fill-rule="evenodd" clip-rule="evenodd" d="M1150.56 163.933C1149.46 171.66 1148.22 179.912 1146.83 188.691L1146.32 191.908H3185.28L3194.74 235.549H3223.37L3210.22 174.957L3207.83 163.933H3196.56H1150.56ZM3282.58 640.626L3274.51 603.42H3303.14L3313.59 651.65L3317.27 668.601H3299.93H24.1987H8.17773L10.339 652.727L22.4108 564.062C29.3535 572.156 37.8765 579.156 47.8049 584.913L40.2195 640.626H3282.58ZM95.3519 235.689L101.313 191.908H839.116L843.167 163.933H89.1006H76.8884L75.241 176.034L67.1188 235.689H95.3519ZM967.925 163.933H1025.14L1020.71 191.908H964.548C966.006 181.985 967.07 172.654 967.925 163.933Z" fill="black"/>
<path d="M3257.96 256.53H3165.37L2988.56 582.438H3078.5L3109.83 525.789H3226.63L3238.8 582.438H3329.16L3257.96 256.53ZM3143.54 461.027L3194.88 357.24H3195.72L3213.9 461.027H3143.54Z" fill="black"/>
<path d="M3059.48 328.286L3070.81 256.53H2846.31L2834.98 328.286H2904.92L2864.77 582.438H2949.4L2989.54 328.286H3059.48Z" fill="black"/>
<path d="M2661.82 256.53L2485.01 582.438H2574.95L2606.29 525.789H2723.08L2735.25 582.438H2825.61L2754.41 256.53H2661.82ZM2639.86 461.027L2691.19 357.24H2692.03L2710.21 461.027H2639.86Z" fill="black"/>
<path d="M2361.23 256.53H2241.07L2189.6 582.438H2309.75C2400.11 582.438 2486.55 511.102 2501.1 419.484C2515.51 327.866 2452 256.53 2361.23 256.53ZM2412.84 419.484C2402.77 482.987 2355.21 510.823 2304.58 510.823H2285.55L2314.37 328.426H2334.23C2388.78 328.286 2421.93 361.157 2412.84 419.484Z" fill="black"/>
<path d="M1935.45 416.547C1933.21 432.493 1931.39 448.019 1931.39 462.566V470.818C1925.94 446.62 1917.68 429.835 1912.65 417.526L1843.83 256.53H1744.38L1692.9 582.438H1780.05L1804.66 417.386C1806.48 403.259 1808.3 388.292 1808.3 372.347V363.255C1813.76 386.054 1821.45 403.399 1827.46 416.547L1900.34 582.438H1996.15L2047.63 256.53H1960.48L1935.45 416.547Z" fill="black"/>
<path d="M1444.77 582.438H1632.62L1643.95 509.843H1543.24L1551.91 455.712H1645.77L1656.82 384.935H1563.38L1571.49 331.643H1672.34L1684.23 256.53H1496.38L1444.77 582.438Z" fill="black"/>
<path d="M1380.98 269.678C1356.78 257.37 1327.69 256.53 1292.44 256.53H1203.06L1151.17 582.438H1237.89L1256.07 468.86H1292.58C1329.51 468.86 1358.18 467.881 1381.54 453.894C1410.64 435.71 1430.78 399.202 1430.78 357.24C1430.64 315.697 1413.85 286.603 1380.98 269.678ZM1275.24 399.482H1266.99L1278.87 325.628H1294.4C1329.93 325.628 1347.27 335.699 1347.27 360.317C1347.13 394.027 1321.68 399.482 1275.24 399.482Z" fill="black"/>
<path d="M1125.85 187.292C1132.43 145.61 1135.78 115.816 1135.78 97.6326C1135.78 39.0251 1087.81 0.699371 1013.67 0.699371C956.044 0.699371 913.242 22.7996 890.163 62.6639C876.315 86.4426 871.979 113.718 867.083 143.651L859.53 191.628H942.755C955.064 113.858 963.177 76.3716 1008.92 76.3716C1035.77 76.3716 1051.3 91.8977 1051.3 118.474C1051.3 130.923 1049.2 145.749 1046.12 163.933L1029.9 266.321C1012.13 260.587 992.551 257.37 971.15 257.37C915.2 257.37 866.244 279.05 833.234 317.656C804.979 350.526 790.852 391.37 790.852 437.248C790.852 480.61 808.616 520.474 838.129 545.931C866.384 570.129 902.332 582.438 946.812 582.438C1003.04 582.438 1050.32 561.177 1084.17 521.733C1127.67 471.098 1127.11 411.651 1126.97 402.14C1126.13 364.514 1113.4 335.559 1104.59 319.474L1125.85 187.292ZM1001.78 359.478C999.824 372.207 990.173 383.676 977.584 388.292L985.977 499.213L987.236 515.858L904.989 515.718L907.087 510.123L912.263 496.835L954.785 388.152C943.595 383.537 937.58 372.067 939.678 359.478C941.217 348.987 948.071 339.616 956.883 334.021H957.023C962.058 330.804 967.653 328.985 973.248 328.566C974.087 328.566 974.787 328.426 975.626 328.426C984.998 328.426 993.11 332.622 997.726 339.896C997.726 339.896 997.726 339.896 997.866 339.896C1001.36 345.211 1002.9 352.065 1001.78 359.478Z" fill="black"/>
<path d="M379.62 315.278C353.603 347.449 339.196 387.873 339.196 432.073C339.196 522.013 396.125 582.438 485.505 582.438C515.019 582.438 540.756 578.942 561.877 572.088L574.885 491.8C550.127 502.15 527.188 507.745 504.109 507.745C452.355 507.745 423.821 478.651 423.821 428.576C423.821 372.486 461.167 333.042 512.361 333.042C541.875 333.042 570.549 343.392 594.887 364.234L608.735 278.63C583.138 265.622 552.645 256.53 515.718 256.53C457.81 256.67 410.393 277.511 379.62 315.278Z" fill="black"/>
<path d="M201 371.647C186.873 461.587 180.578 504.948 130.923 504.948C103.507 504.948 87.5617 489.002 87.5617 462.006C87.5617 449.278 89.7998 434.171 92.877 415.568L118.194 256.67H33.1505L11.33 391.649C4.616 434.171 1.11914 464.664 1.11914 483.267C1.11914 543.134 50.2152 582.438 125.887 582.438C184.775 582.438 228.555 559.919 252.054 519.075C266.182 494.737 270.658 466.902 275.553 436.269L303.808 256.53H219.044L201 371.647Z" fill="black"/>
</svg>
